<svg xmlns="http://www.w3.org/2000/svg" width="512" height="512" viewBox="0 0 512 512" version="1.1">
	<path d="M 232.500 17.117 C 217.005 18.574, 197.125 22.928, 180.154 28.583 C 104.019 53.947, 46.410 114.654, 24.602 192.500 C -0.918 283.590, 31.627 383.748, 106.051 443.159 C 174.311 497.650, 265.211 510.977, 346 478.337 C 429.028 444.793, 486.690 367.228, 494.931 278 C 500.048 222.595, 485.318 166.109, 453.814 120.324 C 404.100 48.074, 320.058 8.882, 232.500 17.117 M 166 255.994 L 166 372.116 224.750 371.764 C 281.888 371.421, 283.720 371.350, 291.500 369.183 C 316.927 362.099, 334.807 346.804, 347.424 321.344 C 356.338 303.358, 360.834 283.697, 361.720 258.836 C 362.384 240.199, 360.943 225.052, 357.026 209.500 C 349.275 178.725, 330.631 155.923, 305.476 146.455 C 290.253 140.725, 290.303 140.729, 225.750 140.284 L 166 139.873 166 255.994 M 213 256 L 213 332 236.750 331.992 C 264.558 331.984, 271.003 331.174, 280.632 326.483 C 302.642 315.758, 314.446 286.120, 312.685 246 C 311.399 216.690, 304.357 197.062, 292.251 189.043 C 281.085 181.647, 271.101 180, 237.428 180 L 213 180 213 256" stroke="none" fill="black" fill-rule="evenodd"/>
</svg>